<?xml version="1.0" encoding="UTF-8"?>
<svg version="1.1" xmlns="http://www.w3.org/2000/svg" width="528" height="400">
<path d="M0 0 C3.8578662 0.89027681 4.13934769 1.4532863 6.1875 4.6875 C7.25158235 6.68589856 8.26511433 8.71140532 9.25 10.75 C9.59272949 11.45688965 9.93545898 12.1637793 10.28857422 12.89208984 C12.66693392 17.81876655 14.97580092 22.77446801 17.25 27.75 C17.99870361 27.66435791 18.74740723 27.57871582 19.51879883 27.49047852 C58.64707848 23.05300381 97.11599652 22.42641631 136.25 27.75 C136.75789063 26.72261719 137.26578125 25.69523437 137.7890625 24.63671875 C141.7852207 16.58208409 145.87744873 8.60887512 150.25 0.75 C159.92237761 1.18991457 169.06612636 3.05162005 178.4375 5.3125 C179.17955688 5.48918213 179.92161377 5.66586426 180.68615723 5.84790039 C194.44240982 9.13466875 207.89121082 13.09318294 221.25 17.75 C222.20825684 18.08 223.16651367 18.41 224.15380859 18.75 C229.70777049 20.67234476 235.21366082 22.69091426 240.69824219 24.80273438 C243.16814193 25.71961258 245.65387073 26.52947357 248.1640625 27.328125 C261.03873609 31.75079405 266.36750891 39.43073738 272.79589844 51.1171875 C274.16890817 53.60317422 275.60161541 56.03836935 277.0703125 58.46875 C284.34965869 70.59111607 290.87721157 83.13279273 297.25 95.75 C297.91346436 97.06073486 297.91346436 97.06073486 298.59033203 98.39794922 C319.07756069 139.2093782 332.58135875 184.42133438 338.25 229.75 C338.47212158 231.45857178 338.47212158 231.45857178 338.69873047 233.20166016 C341.02198147 251.79517061 341.53735931 270.27392024 341.5625 289 C341.56608521 290.07393005 341.56967041 291.14786011 341.57336426 292.2543335 C341.59328079 303.32983355 341.40000806 314.39527573 340.609375 325.4453125 C340.5661763 326.3044928 340.5229776 327.1636731 340.47846985 328.04888916 C340.10645672 332.35209435 339.55170499 334.95858373 336.37402344 338.00634766 C334.04037158 339.74103125 331.93614836 341.30162917 329.34375 342.578125 C325.80869349 344.41676071 322.5520986 346.49774118 319.25610352 348.73242188 C308.95205636 355.66907772 298.10180405 361.72430314 287.25 367.75 C286.52876953 368.15460449 285.80753906 368.55920898 285.06445312 368.97607422 C263.81974384 380.84901113 241.15445976 389.65499915 218.25 397.75 C217.39148438 398.06195313 216.53296875 398.37390625 215.6484375 398.6953125 C207.90954095 401.42819016 207.90954095 401.42819016 204.25 400.75 C193.89968786 392.32297325 186.56525408 375.25585433 180 363.75 C179.42596436 362.75407837 179.42596436 362.75407837 178.84033203 361.73803711 C177.23043825 358.86365727 176.25 357.09957689 176.25 353.75 C176.84723877 353.49943848 177.44447754 353.24887695 178.05981445 352.99072266 C191.82192084 347.18797965 205.15386296 340.93224552 218.25 333.75 C218.46895274 331.69309198 218.46895274 331.69309198 217.03515625 330.35546875 C215.14683443 328.80113582 213.49980456 327.72127681 211.25 326.75 C209.2476822 326.96004358 209.2476822 326.96004358 207.24609375 327.81640625 C206.4564624 328.11135986 205.66683105 328.40631348 204.85327148 328.71020508 C203.5646521 329.22490356 203.5646521 329.22490356 202.25 329.75 C201.33871338 330.10666748 200.42742676 330.46333496 199.48852539 330.83081055 C197.48578563 331.62037628 195.48505847 332.4150609 193.48608398 333.21411133 C171.66049126 341.88671766 149.39766754 347.8363207 126.25 351.75 C124.83001709 351.9977417 124.83001709 351.9977417 123.38134766 352.25048828 C92.53773657 357.39552398 58.02698175 357.22725946 27.25 351.75 C26.11079102 351.55132324 24.97158203 351.35264648 23.79785156 351.14794922 C-2.01773808 346.51696129 -26.27260324 338.82736455 -50.41357422 328.65454102 C-52.54073493 327.83101641 -54.49885791 327.11866443 -56.75 326.75 C-58.96765724 327.92939922 -58.96765724 327.92939922 -61 329.6875 C-61.70640625 330.25339844 -62.4128125 330.81929688 -63.140625 331.40234375 C-63.67171875 331.84707031 -64.2028125 332.29179687 -64.75 332.75 C-58.21700678 337.04469167 -51.43343401 340.46437647 -44.375 343.8125 C-43.3025 344.32876953 -42.23 344.84503906 -41.125 345.37695312 C-34.75486079 348.41865585 -28.34444304 351.23022472 -21.75 353.75 C-23.35626167 359.54774921 -26.2027059 364.45101267 -29.1875 369.625 C-29.71593506 370.54595459 -30.24437012 371.46690918 -30.78881836 372.41577148 C-36.51590757 382.2671148 -42.85107043 391.67960408 -49.75 400.75 C-57.23833812 400.22627574 -63.79079461 397.87274175 -70.8125 395.3125 C-72.04460205 394.86729004 -73.2767041 394.42208008 -74.54614258 393.96337891 C-85.30170527 390.04015268 -95.82066875 385.63497447 -106.23974609 380.89208984 C-108.53540673 379.84763347 -110.83864329 378.82239056 -113.14453125 377.80078125 C-136.42918392 367.32899255 -158.3504349 353.55455752 -179.18164062 338.85595703 C-180.49243265 337.93162828 -181.81514757 337.02423768 -183.140625 336.12109375 C-185.50258278 334.10884331 -185.7106078 332.09014431 -186.05802917 329.09022522 C-186.65895251 321.11441372 -186.93665981 313.1809068 -186.98828125 305.18359375 C-186.99812042 303.92308701 -187.00795959 302.66258026 -187.01809692 301.36387634 C-187.043252 297.30504146 -187.05704455 293.24639964 -187.0625 289.1875 C-187.0635033 288.49469185 -187.06450661 287.8018837 -187.06554031 287.08808136 C-187.08535563 264.75536913 -186.46041745 242.814066 -182.75 220.75 C-182.62884827 220.01640259 -182.50769653 219.28280518 -182.38287354 218.52697754 C-178.89871732 197.53931039 -174.21666867 177.03830135 -167.75 156.75 C-167.41274902 155.68201172 -167.07549805 154.61402344 -166.72802734 153.51367188 C-153.95343322 113.57108711 -134.97649516 75.77126684 -112 40.75 C-111.61827637 40.163396 -111.23655273 39.57679199 -110.84326172 38.97241211 C-93.82540405 13.74634897 -27.66849099 5.5336982 0 0 Z M-45.00390625 184.4296875 C-54.64168366 197.24455912 -59.15263465 210.52229636 -57.75 226.75 C-55.45354301 242.84433606 -47.96680311 255.08536506 -35.71875 265.47265625 C-26.51272471 271.85055936 -14.72225485 274.06291938 -3.75 272.75 C9.06231168 269.93792666 19.80615721 262.74666687 27.19921875 251.88671875 C35.83547696 237.63779797 38.77358647 221.85613909 35.125 205.4375 C31.06553604 191.54887099 22.4026269 180.44209258 9.91015625 173.15625 C8.59337891 172.46015625 8.59337891 172.46015625 7.25 171.75 C6.22712891 171.20859375 6.22712891 171.20859375 5.18359375 170.65625 C-12.34767095 163.24577412 -33.26759404 170.47629032 -45.00390625 184.4296875 Z M130.09765625 184.5 C119.18164599 197.79306958 116.6200644 214.09387698 118.25 230.75 C120.56375743 243.46266725 127.39539142 255.89431875 137.859375 263.6953125 C149.14729638 271.14783518 160.42272059 274.69768341 174.0078125 272.25390625 C187.51169495 268.50753134 197.02027553 260.58023655 204.48828125 248.88671875 C211.86609499 235.75061135 213.10142603 220.64664598 210.6015625 205.93359375 C207.31561977 194.26428432 200.08374187 182.18381373 189.54492188 175.70117188 C168.54557954 163.96559032 146.89317415 166.86971481 130.09765625 184.5 Z " fill="#FFFFFF" transform="translate(186.75,-0.75)"/>
</svg>
